<svg xmlns="http://www.w3.org/2000/svg" width="96" height="96" viewBox="0 0 96 96">
  <defs>
    <filter id="filter-1" width="108.8%" height="108.8%" x="-3.1%" y="-3.1%" filterUnits="objectBoundingBox">
      <feOffset dx="1" dy="1" in="SourceAlpha" result="shadowOffsetOuter1"/>
      <feGaussianBlur stdDeviation="1" in="shadowOffsetOuter1" result="shadowBlurOuter1"/>
      <feColorMatrix values="0 0 0 0 0 0 0 0 0 0 0 0 0 0 0 0 0 0 0.5 0" in="shadowBlurOuter1" result="shadowMatrixOuter1"/>
      <feMerge>
        <feMergeNode in="shadowMatrixOuter1"/>
        <feMergeNode in="SourceGraphic"/>
      </feMerge>
    </filter>
  </defs>
  <g id="Page-1" fill="none" fill-rule="evenodd">
    <g id="96---shadow---outlined" fill-rule="nonzero">
      <g id="shadow" filter="url(#filter-1)" transform="translate(8 8)">
        <circle id="Oval" cx="40" cy="40" r="40" fill="#212121"/>
        <path id="Oval-2" fill="#27E5FD" d="M39.1666667,32.9479167 C51.4333552,32.9479167 61.3333333,29.5341311 61.3333333,26.6145833 C61.3333333,23.6950355 51.4333552,20.28125 39.1666667,20.28125 C26.8999781,20.28125 17,23.6950355 17,26.6145833 C17,29.5341311 26.8999781,32.9479167 39.1666667,32.9479167 Z M39.1666667,34.9479167 C25.8197852,34.9479167 15,31.2169562 15,26.6145833 C15,22.0122104 25.8197852,18.28125 39.1666667,18.28125 C52.5135481,18.28125 63.3333333,22.0122104 63.3333333,26.6145833 C63.3333333,31.2169562 52.5135481,34.9479167 39.1666667,34.9479167 Z"/>
        <path id="Oval-2" fill="#27E5FD" d="M63.3333333,40 C63.3333333,44.6023729 52.5135481,48.3333333 39.1666667,48.3333333 C25.8197852,48.3333333 15,44.6023729 15,40 L17,40 C17,42.9195478 26.8999781,46.3333333 39.1666667,46.3333333 C51.4333552,46.3333333 61.3333333,42.9195478 61.3333333,40 L63.3333333,40 Z M61.3333333,40 L63.3333333,40 C63.3333333,44.6023729 52.5135481,48.3333333 39.1666667,48.3333333 C25.8197852,48.3333333 15,44.6023729 15,40 L17,40 C17,42.9195478 26.8999781,46.3333333 39.1666667,46.3333333 C51.4333552,46.3333333 61.3333333,42.9195478 61.3333333,40 Z"/>
        <path id="Oval-2" fill="#27E5FD" d="M63.3333333,53.28125 C63.3333333,57.8836229 52.5135481,61.6145833 39.1666667,61.6145833 C25.8197852,61.6145833 15,57.8836229 15,53.28125 L17,53.28125 C17,56.2007978 26.8999781,59.6145833 39.1666667,59.6145833 C51.4333552,59.6145833 61.3333333,56.2007978 61.3333333,53.28125 L63.3333333,53.28125 Z M61.3333333,53.28125 L63.3333333,53.28125 C63.3333333,57.8836229 52.5135481,61.6145833 39.1666667,61.6145833 C25.8197852,61.6145833 15,57.8836229 15,53.28125 L17,53.28125 C17,56.2007978 26.8999781,59.6145833 39.1666667,59.6145833 C51.4333552,59.6145833 61.3333333,56.2007978 61.3333333,53.28125 Z"/>
      </g>
    </g>
  </g>
</svg>
