<?xml version="1.0" standalone="no"?>
<!DOCTYPE svg PUBLIC "-//W3C//DTD SVG 20010904//EN"
 "http://www.w3.org/TR/2001/REC-SVG-20010904/DTD/svg10.dtd">
<svg version="1.0" xmlns="http://www.w3.org/2000/svg"
 width="700.000000pt" height="700.000000pt" viewBox="0 0 700.000000 700.000000"
 preserveAspectRatio="xMidYMid meet">
<metadata>
Created by potrace 1.11, written by Peter Selinger 2001-2013
</metadata>
<g transform="translate(0.000000,700.000000) scale(0.100000,-0.100000)"
fill="#000000" stroke="none">
<path d="M3205 6399 c-388 -40 -769 -159 -1108 -346 -783 -431 -1326 -1198
-1471 -2078 -49 -295 -49 -645 0 -950 189 -1179 1115 -2142 2288 -2380 193
-39 363 -55 581 -56 478 0 871 91 1301 301 276 135 539 325 764 550 476 475
767 1088 840 1765 16 145 13 478 -5 629 -59 496 -240 967 -525 1361 -499 690
-1243 1119 -2090 1205 -112 11 -461 11 -575 -1z m678 -1335 c670 -59 1184
-253 1293 -488 133 -285 -310 -556 -1086 -665 -215 -30 -387 -41 -649 -41
-437 0 -782 42 -1118 136 -801 223 -864 644 -133 899 442 154 1075 213 1693
159z m-2049 -1596 c10 -50 92 -119 209 -177 217 -107 530 -184 927 -228 216
-24 725 -24 938 0 563 63 1011 210 1117 365 14 20 25 45 25 54 0 16 10 18 75
18 72 0 75 -1 75 -24 0 -66 -68 -162 -164 -233 -602 -444 -2401 -472 -3120
-49 -134 79 -236 199 -236 278 l0 28 74 0 74 0 6 -32z m-4 -956 c0 -56 119
-152 266 -215 284 -122 652 -193 1126 -219 655 -35 1403 95 1709 298 66 43
119 105 119 137 0 14 11 17 75 17 74 0 75 0 75 -25 0 -59 -73 -165 -158 -227
-219 -162 -608 -277 -1127 -334 -223 -24 -727 -24 -950 0 -519 57 -906 171
-1125 332 -93 69 -160 164 -160 229 0 25 1 25 75 25 65 0 75 -2 75 -18z"/>
<path d="M3230 4929 c-609 -25 -1155 -168 -1342 -349 -54 -52 -58 -59 -58
-102 0 -40 5 -52 44 -94 132 -148 523 -274 1046 -339 199 -25 685 -31 913 -11
674 59 1217 255 1217 439 0 203 -651 423 -1335 452 -272 11 -315 12 -485 4z"/>
</g>
</svg>
